<svg xmlns="http://www.w3.org/2000/svg" xmlns:xlink="http://www.w3.org/1999/xlink" width="118" height="40" viewBox="0 0 118 40"><defs><style>.a{fill:none;}.b{clip-path:url(#a);}.c{fill:#d1e2eb;}.d{fill:#656b70;}</style><clipPath id="a"><rect class="a" width="118" height="40"/></clipPath></defs><g class="b"><path class="c" d="M5,40a5.015,5.015,0,0,1-5-5V5A5.015,5.015,0,0,1,5,0H113a5.015,5.015,0,0,1,5,5V35a5.015,5.015,0,0,1-5,5Z"/><path class="d" d="M48.483,25.054H46.624V13.005h1.8v1.507h.034a3.22,3.22,0,0,1,2.779-1.6l.1,0a3.47,3.47,0,0,1,2.767,1.259,5.1,5.1,0,0,1,1.045,3.363A5.227,5.227,0,0,1,54.116,20.9a3.427,3.427,0,0,1-2.741,1.255c-.067,0-.121,0-.162,0a3.066,3.066,0,0,1-2.687-1.589h-.043v4.484Zm2.367-10.56c-1.421,0-2.375,1.221-2.375,3.038s.954,3.046,2.375,3.046c1.454,0,2.393-1.2,2.393-3.046a3.521,3.521,0,0,0-.654-2.207A2.139,2.139,0,0,0,50.85,14.495ZM38.518,25.054H36.66V13.005h1.8v1.507h.034a3.22,3.22,0,0,1,2.779-1.6l.1,0a3.47,3.47,0,0,1,2.768,1.259,5.1,5.1,0,0,1,1.045,3.363A5.227,5.227,0,0,1,44.151,20.9a3.427,3.427,0,0,1-2.741,1.255c-.066,0-.119,0-.162,0a3.066,3.066,0,0,1-2.687-1.589h-.043v4.484Zm2.367-10.56c-1.421,0-2.375,1.221-2.375,3.038s.954,3.046,2.375,3.046c1.454,0,2.393-1.2,2.393-3.046a3.521,3.521,0,0,0-.654-2.207A2.139,2.139,0,0,0,40.885,14.495ZM64.57,22.266c-2.756,0-4.613-1.439-4.733-3.667h1.9c.137,1.22,1.329,2.039,2.968,2.039,1.561,0,2.694-.807,2.694-1.919,0-.963-.684-1.542-2.289-1.936L63.5,16.4c-2.277-.55-3.338-1.614-3.338-3.348,0-2.128,1.858-3.614,4.518-3.614,2.62,0,4.422,1.453,4.484,3.614H67.289c-.111-1.226-1.119-1.987-2.633-1.987a2.968,2.968,0,0,0-1.823.517,1.62,1.62,0,0,0-.7,1.342c0,.875.653,1.394,2.255,1.79l1.368.336c2.528.6,3.606,1.628,3.606,3.443a3.386,3.386,0,0,1-1.293,2.76A5.608,5.608,0,0,1,64.57,22.266Zm30.945-.094c-2.633,0-4.269-1.761-4.269-4.6s1.645-4.682,4.19-4.682a3.905,3.905,0,0,1,2.98,1.2,4.736,4.736,0,0,1,1.1,3.262V18H93.122v.113a2.358,2.358,0,0,0,2.347,2.566l.049,0c.136.007.188.009.231.009a2.036,2.036,0,0,0,1.9-1.283h1.765C99.165,21.032,97.561,22.172,95.514,22.172ZM95.423,14.4a2.276,2.276,0,0,0-1.618.669A2.309,2.309,0,0,0,93.13,16.7h4.527a2.177,2.177,0,0,0-2.173-2.3h-.062ZM80.387,22.172a4.136,4.136,0,0,1-3.134-1.248,4.875,4.875,0,0,1-1.16-3.39,4.866,4.866,0,0,1,1.166-3.388,4.542,4.542,0,0,1,6.26,0,4.87,4.87,0,0,1,1.163,3.388,4.875,4.875,0,0,1-1.159,3.39A4.141,4.141,0,0,1,80.387,22.172Zm0-7.746c-1.5,0-2.4,1.162-2.4,3.108s.9,3.106,2.4,3.106,2.4-1.161,2.4-3.106S81.891,14.425,80.387,14.425Zm-6.239,7.687h-.093c-1.834,0-2.548-.685-2.548-2.444V14.477H70.191V13.005h1.317V10.863h1.867v2.142H75.1v1.472H73.374v4.991c0,.775.35,1.137,1.1,1.137.171,0,.377-.018.612-.042v1.463A4.8,4.8,0,0,1,74.148,22.112ZM26.461,22.06H24.456L28.939,9.641h2.083L35.5,22.058H33.466L32.331,18.7H27.6l-1.137,3.356Zm3.478-10.354h0l-1.851,5.448h3.752L29.99,11.706ZM88.073,22.059H86.215V13.005h1.772v1.542h.043a2.157,2.157,0,0,1,2.1-1.638h.095a2.866,2.866,0,0,1,.625.069v1.739a2.782,2.782,0,0,0-.76-.113h-.1l-.056,0a1.872,1.872,0,0,0-1.859,2.084v5.369Zm-82.439,0h0c-1.427,0-2.536-1.584-3.345-2.741A13.923,13.923,0,0,1,.179,14.057,8.6,8.6,0,0,1,.918,8.329,5.345,5.345,0,0,1,5.391,5.6h.063a5.975,5.975,0,0,1,2.19.566l.011,0A4.021,4.021,0,0,0,9,6.559a3.674,3.674,0,0,0,1.293-.382l.011,0,.005,0a6.584,6.584,0,0,1,2.5-.635c.079,0,.193.006.349.018a5.1,5.1,0,0,1,3.991,2.157A4.926,4.926,0,0,0,14.8,11.864a4.777,4.777,0,0,0,2.92,4.4A11.214,11.214,0,0,1,16.2,19.355C15.231,20.8,14.314,22,12.877,22.025H12.8a3.758,3.758,0,0,1-1.6-.4,4.4,4.4,0,0,0-3.913.014l-.008,0a3.8,3.8,0,0,1-1.567.415Zm87.4-15.7a1.827,1.827,0,0,1-.2-.011h-.055a2.046,2.046,0,0,1-2.025-2.326,2.076,2.076,0,0,1,2.057-2.352h.019c1.258,0,2.009.849,2.009,2.27v.31h-3.18V4.3a1.19,1.19,0,0,0,1.186,1.29h.013a1.034,1.034,0,0,0,.129.008,1.08,1.08,0,0,0,.942-.554h.856A1.837,1.837,0,0,1,93.037,6.359Zm-.22-3.931a1.151,1.151,0,0,0-1.152,1.166h2.274a1.086,1.086,0,0,0-1.083-1.167h-.039ZM71.382,6.348a2.106,2.106,0,0,1-1.126-.321,2.149,2.149,0,0,1-1-2.019,2.133,2.133,0,1,1,4.247,0,2.134,2.134,0,0,1-2.124,2.34Zm0-3.887c-.767,0-1.207.564-1.207,1.547s.44,1.55,1.207,1.55,1.208-.565,1.208-1.55S72.151,2.461,71.383,2.461ZM53.37,6.348a2.079,2.079,0,0,1-1.126-.321,2.121,2.121,0,0,1-1-2.019,2.134,2.134,0,1,1,4.248,0,2.121,2.121,0,0,1-1,2.019A2.079,2.079,0,0,1,53.37,6.348Zm0-3.887c-.767,0-1.207.564-1.207,1.547s.44,1.55,1.207,1.55,1.209-.565,1.209-1.55S54.139,2.461,53.371,2.461ZM33.833,6.348a2.057,2.057,0,0,1-1.126-.321,2.121,2.121,0,0,1-1-2.019,2.133,2.133,0,1,1,4.247,0,2.148,2.148,0,0,1-1,2.019A2.057,2.057,0,0,1,33.833,6.348Zm0-3.887c-.767,0-1.207.564-1.207,1.547s.44,1.55,1.207,1.55,1.209-.565,1.209-1.55S34.6,2.461,33.834,2.461ZM57.79,6.342a1.361,1.361,0,0,1-1.361-1.355c0-.8.595-1.276,1.675-1.344l1.219-.07V3.184c0-.48-.327-.744-.922-.744-.5,0-.84.182-.939.5H56.6c.091-.771.814-1.269,1.84-1.269,1.122,0,1.765.551,1.765,1.513V6.26h-.855V5.628h-.07A1.508,1.508,0,0,1,58,6.337l-.07,0A1.021,1.021,0,0,1,57.79,6.342Zm1.534-2.116h0l-1.1.07c-.615.041-.9.248-.9.649s.328.642.835.642a1.028,1.028,0,0,0,.106.005,1.062,1.062,0,0,0,1.059-.99V4.226ZM63.3,6.336h-.059c-1.153,0-1.869-.892-1.869-2.327,0-1.412.734-2.325,1.869-2.325l.067,0a1.48,1.48,0,0,1,1.313.792h.067V0h.889V6.26H64.73V5.549h-.07A1.565,1.565,0,0,1,63.3,6.336ZM63.5,2.481c-.742,0-1.2.585-1.2,1.526,0,.957.45,1.529,1.2,1.529s1.212-.585,1.212-1.525S64.245,2.481,63.5,2.481Zm20.538,3.8c-.981,0-1.382-.352-1.382-1.216V2.527h-.715V1.778h.715V.636h.889V1.778h.976v.749h-.976V4.842c0,.469.2.679.637.679a3,3,0,0,0,.338-.021v.741a2.854,2.854,0,0,1-.483.045Zm2.586-.024h-.888V0h.881V2.481h.07a1.387,1.387,0,0,1,1.259-.811c.03,0,.064,0,.113,0,.027,0,.054,0,.081,0a1.481,1.481,0,0,1,1.47,1.68V6.26h-.889V3.573c0-.709-.333-1.084-.963-1.084a.8.8,0,0,0-.086,0,1.052,1.052,0,0,0-1.049,1.145V6.26Zm-11.035,0H74.7v-4.5h.855v.715h.067a1.349,1.349,0,0,1,1.234-.806c.029,0,.061,0,.11,0s.082,0,.112,0a1.465,1.465,0,0,1,1.447,1.679V6.26h-.889V3.569c0-.729-.318-1.083-.971-1.083h-.05a1.032,1.032,0,0,0-1.026,1.141V6.26Zm-30.816,0h-.888v-4.5h.855v.715H44.8a1.349,1.349,0,0,1,1.234-.806c.029,0,.061,0,.11,0s.082,0,.112,0a1.465,1.465,0,0,1,1.447,1.679V6.26h-.889V3.569c0-.729-.318-1.083-.971-1.083H45.8A1.032,1.032,0,0,0,44.77,3.626V6.26Zm-6.018,0h-.913L36.6,1.758h.9l.806,3.436h.067L39.3,1.758h.853l.925,3.436h.07l.8-3.436h.889L41.6,6.26H40.68l-.931-3.316h-.07L38.752,6.26Zm11.259,0h-.889V0h.889V6.26Zm-22.156,0H25.7V.294h2.156a1.553,1.553,0,0,1,.19-.007,2.639,2.639,0,0,1,2.617,2.972C30.662,5.166,29.639,6.26,27.855,6.26ZM26.626,1.138v4.28h1.125c.037,0,.074,0,.111,0a1.877,1.877,0,0,0,1.857-2.15,1.879,1.879,0,0,0-1.862-2.136l-.105,0ZM8.87,5.3H8.829A4.6,4.6,0,0,1,9.973,1.943,4.937,4.937,0,0,1,13.18.284a4.8,4.8,0,0,1-1.115,3.49A4.08,4.08,0,0,1,8.87,5.3Z" transform="translate(9 8.437)"/></g></svg>