<svg xmlns="http://www.w3.org/2000/svg" width="45" height="35.001" viewBox="0 0 45 35.001"><defs><style>.a{fill:#4592ff;}</style></defs><path class="a" d="M41.4,35H10.8a3.6,3.6,0,0,1-3.6-3.6V25.074H3.6a3.6,3.6,0,0,1-3.6-3.6V3.6A3.606,3.606,0,0,1,3.6,0H34.2a3.606,3.606,0,0,1,3.6,3.6V9.914h3.6A3.607,3.607,0,0,1,45,13.52V31.4A3.6,3.6,0,0,1,41.4,35ZM11.7,11.718A2.7,2.7,0,0,0,9,14.42V30.5a2.7,2.7,0,0,0,2.7,2.7H40.5a2.7,2.7,0,0,0,2.7-2.7V14.42a2.7,2.7,0,0,0-2.7-2.7Zm-9.9,0v8.856a2.7,2.7,0,0,0,2.7,2.7H7.2V13.52a3.6,3.6,0,0,1,.482-1.8Zm0-4.507v2.7H36v-2.7ZM4.5,1.8a2.705,2.705,0,0,0-2.7,2.7v.9H36v-.9a2.705,2.705,0,0,0-2.7-2.7ZM29.25,27.5a4.907,4.907,0,0,1-3.15-1.143A4.91,4.91,0,0,1,22.95,27.5a5,5,0,0,1,0-10,4.907,4.907,0,0,1,3.15,1.143A4.91,4.91,0,0,1,29.25,17.5a5,5,0,0,1,0,10ZM29.2,19.3a3.2,3.2,0,1,0,3.2,3.2A3.205,3.205,0,0,0,29.2,19.3Zm-6.25,0a3.2,3.2,0,0,0,0,6.4,3.132,3.132,0,0,0,1.991-.72,5.114,5.114,0,0,1,0-4.959A3.124,3.124,0,0,0,22.95,19.3Z"/></svg>