<svg xmlns="http://www.w3.org/2000/svg" width="45" height="45" viewBox="0 0 45 45"><defs><style>.a{fill:#4592ff;}</style></defs><path class="a" d="M22.5,45A22.5,22.5,0,1,1,45,22.5,22.525,22.525,0,0,1,22.5,45Zm0-43.2A20.7,20.7,0,1,0,43.2,22.5,20.723,20.723,0,0,0,22.5,1.8Zm0,37.8a.9.9,0,0,1-.9-.9V36.9a.9.9,0,1,1,1.8,0v1.8A.9.9,0,0,1,22.5,39.6Zm10.157-9.481a.9.9,0,0,1-.488-.146l-7.313-4.75a3.6,3.6,0,1,1-3.249-6.21A.945.945,0,0,1,21.6,18.9V7.2a.9.9,0,1,1,1.8,0V18.9a.943.943,0,0,1-.007.112,3.6,3.6,0,0,1,2.486,4.73l7.267,4.72a.9.9,0,0,1-.49,1.656ZM22.5,20.7a1.8,1.8,0,1,0,1.8,1.8A1.8,1.8,0,0,0,22.5,20.7ZM8.1,23.4H6.3a.9.9,0,1,1,0-1.8H8.1a.9.9,0,1,1,0,1.8Z"/></svg>