<svg xmlns="http://www.w3.org/2000/svg" width="20" height="20" viewBox="0 0 20 20"><defs><style>.a{fill:none;}.b{fill:#bcbfc2;}</style></defs><rect class="a" width="20" height="20"/><path class="b" d="M9.623,0l-2.4,0A4.154,4.154,0,0,0,2.789,4.43V6.472H.377A.372.372,0,0,0,0,6.839V9.8a.372.372,0,0,0,.377.367H2.789v7.467A.372.372,0,0,0,3.166,18H6.312a.372.372,0,0,0,.377-.367V10.166h2.82A.372.372,0,0,0,9.886,9.8V6.839a.363.363,0,0,0-.11-.26.383.383,0,0,0-.267-.108H6.69V4.741c0-.832.2-1.255,1.318-1.255H9.623A.372.372,0,0,0,10,3.119V.371A.372.372,0,0,0,9.623,0Z" transform="translate(5 1)"/></svg>