<svg xmlns="http://www.w3.org/2000/svg" width="17" height="17" viewBox="0 0 17 17"><defs><style>.a{fill:#bcbfc2;}</style></defs><path class="a" d="M8.5,17c-2.287,0-2.59-.01-3.5-.051a6.272,6.272,0,0,1-2.064-.4,4.158,4.158,0,0,1-1.506-.98,4.158,4.158,0,0,1-.98-1.506A6.272,6.272,0,0,1,.051,12C.01,11.09,0,10.787,0,8.5S.01,5.91.051,5a6.272,6.272,0,0,1,.4-2.064,4.158,4.158,0,0,1,.98-1.506A4.158,4.158,0,0,1,2.932.446,6.272,6.272,0,0,1,5,.051C5.91.01,6.213,0,8.5,0S11.09.01,12,.051a6.272,6.272,0,0,1,2.064.4,4.158,4.158,0,0,1,1.506.98,4.158,4.158,0,0,1,.98,1.506A6.272,6.272,0,0,1,16.949,5C16.99,5.91,17,6.213,17,8.5s-.01,2.591-.051,3.5a6.272,6.272,0,0,1-.4,2.064,4.342,4.342,0,0,1-2.486,2.486,6.272,6.272,0,0,1-2.064.4C11.09,16.99,10.787,17,8.5,17Zm0-12.866A4.364,4.364,0,1,0,12.861,8.5,4.368,4.368,0,0,0,8.5,4.134Zm4.819-1.3a1.039,1.039,0,1,0,1.04,1.039A1.04,1.04,0,0,0,13.316,2.833ZM8.5,11.33A2.833,2.833,0,1,1,11.33,8.5,2.836,2.836,0,0,1,8.5,11.33Z" transform="translate(0 0)"/></svg>