<svg xmlns="http://www.w3.org/2000/svg" width="45" height="43" viewBox="0 0 45 43"><defs><style>.a{fill:#4592ff;}</style></defs><path class="a" d="M9.213,43a1,1,0,0,1-.984-1.17l2.45-14.314L.3,17.373A1,1,0,0,1,.286,15.96a1,1,0,0,1,.569-.29l14.339-2.09L21.6.558A1,1,0,0,1,22.5,0a.985.985,0,0,1,.441.1A1.011,1.011,0,0,1,23.4.558l6.408,13.021,14.339,2.09a1,1,0,0,1,.554,1.7L34.322,27.516l2.45,14.315A1,1,0,0,1,35.784,43a.986.986,0,0,1-.464-.116L22.5,36.126,9.68,42.883A1,1,0,0,1,9.213,43ZM22.5,33.878h0l11.967,6.308-2.3-13.358,9.72-9.486L28.476,15.395,22.5,3.294l-6,12.1L3.182,17.343l9.65,9.486L10.541,40.188,22.5,33.879Z"/></svg>