<svg xmlns="http://www.w3.org/2000/svg" width="18" height="14.8" viewBox="0 0 18 14.8"><defs><style>.a{fill:#bcbfc2;}</style></defs><path class="a" d="M17.979,1.763a.088.088,0,0,0-.1-.024,7.15,7.15,0,0,1-1.687.517A3.777,3.777,0,0,0,17.5.388a.091.091,0,0,0-.029-.1.089.089,0,0,0-.1-.007,7.177,7.177,0,0,1-2.245.875A3.74,3.74,0,0,0,8.682,3.781a3.842,3.842,0,0,0,.072.744A10.3,10.3,0,0,1,1.4.709.087.087,0,0,0,1.323.676a.089.089,0,0,0-.07.044,3.811,3.811,0,0,0,.9,4.859A3.557,3.557,0,0,1,.849,5.153a.088.088,0,0,0-.088,0,.091.091,0,0,0-.045.076v.048A3.79,3.79,0,0,0,3.349,8.89,3.564,3.564,0,0,1,2.1,8.872.09.09,0,0,0,2.02,8.9.091.091,0,0,0,2,8.988,3.752,3.752,0,0,0,5.253,11.6,7.154,7.154,0,0,1,.961,13.013,7.34,7.34,0,0,1,.1,12.962a.09.09,0,0,0-.059.165A10.381,10.381,0,0,0,5.694,14.8,10.443,10.443,0,0,0,16.186,4.209q0-.217-.008-.433a7.51,7.51,0,0,0,1.807-1.9A.091.091,0,0,0,17.979,1.763Z"/></svg>